# xmcd
#
# Track frame offsets:
#	150
#	19368
#	41080
#	61632
#	87148
#	105288
#	125679
#	148185
#	168423
#	188661
#	206651
#	228014
#	243755
#	262869
#	280859
#	298841
#	318061
#
# Disc length: 4482 seconds
#
# Revision: 6
# Processed by: cddbd v1.5.2PL0 Copyright (c) Steve Scherf et al.
# Submitted via: audiograbber 1.83.01
#
DISCID=e4118011
DTITLE=Cream - Anthems 2007 CD2
DYEAR=2006
DGENRE=House
TTITLE0=Basement Jaxx - Take Me Back To Your House
TTITLE1=Fish Go Deep Feat. Tracey K - The Cure and The Cause
TTITLE2=Freemasons Feat. Siedah Garrett - Rain Down Love
TTITLE3=Seamus Haji and Steve Mac - Happy
TTITLE4=Dirty Old Ann - Turn Me On
TTITLE5=Ben Macklin Feat. Tiger Lilly - Feel Together
TTITLE6=Fireflies and Alexandra Prince - I Can't Get Enough
TTITLE7=Eddie Thoneick Feat. Berget Lewis - Deeper Love
TTITLE8=Wilder and Clarke Feat. Katherine Ellis - Stand Up
TTITLE9=Dennis Christopher Vs. Whitney - It's Not Right
TTITLE10=DJ Jose - Stepping To The Beat
TTITLE11=Mischa Daniels - Take Me Higher
TTITLE12=Conamore - I've Got This Feeling
TTITLE13=Another Chance - Sound Of Eden
TTITLE14=And If Feat. Alison Limerick - Lead You To Heaven
TTITLE15=Gus Gus - Moss
TTITLE16=1 Of 100 - So Fast
EXTD=
EXTT0=
EXTT1=
EXTT2=
EXTT3=
EXTT4=
EXTT5=
EXTT6=
EXTT7=
EXTT8=
EXTT9=
EXTT10=
EXTT11=
EXTT12=
EXTT13=
EXTT14=
EXTT15=
EXTT16=
PLAYORDER=
